<?xml version="1.0" encoding="UTF-8"?>
<svg version="1.1" xmlns="http://www.w3.org/2000/svg" width="333" height="230">
<path d="M0 0 C109.89 0 219.78 0 333 0 C333 75.9 333 151.8 333 230 C223.11 230 113.22 230 0 230 C0 154.1 0 78.2 0 0 Z " fill="#000203" transform="translate(0,0)"/>
<path d="M0 0 C36.96 0 73.92 0 112 0 C112 45.87 112 91.74 112 139 C50.62 139 -10.76 139 -74 139 C-74 124 -74 124 -72 122 C-71.64186196 119.95669456 -71.34010482 117.90345185 -71.0625 115.84765625 C-70.88976562 114.59662109 -70.71703125 113.34558594 -70.5390625 112.05664062 C-70.35895479 110.7253172 -70.17927224 109.39393619 -70 108.0625 C-69.64992072 105.46944889 -69.2950243 102.8772074 -68.9375 100.28515625 C-68.78152344 99.12894775 -68.62554687 97.97273926 -68.46484375 96.78149414 C-68 94 -68 94 -67 92 C-66.72474066 89.57072705 -66.55467639 87.14146827 -66.37890625 84.703125 C-66 82 -66 82 -64 76 C-49.81 76 -35.62 76 -21 76 C-20.34 70.72 -19.68 65.44 -19 60 C-32.86 60 -46.72 60 -61 60 C-60.39926061 55.19408491 -59.80256841 50.65820624 -58.84375 45.953125 C-58.62589844 44.86 -58.40804687 43.766875 -58.18359375 42.640625 C-57.73089133 40.39522098 -57.27520205 38.15041691 -56.81640625 35.90625 C-55.52679471 29.40477644 -54.65103565 23.07625437 -54.32617188 16.45214844 C-54 14 -54 14 -52 11 C-49.86129761 10.60127258 -49.86129761 10.60127258 -47.18310547 10.56762695 C-45.68177567 10.53793571 -45.68177567 10.53793571 -44.15011597 10.50764465 C-43.06674957 10.50125473 -41.98338318 10.49486481 -40.8671875 10.48828125 C-39.20672897 10.46135445 -39.20672897 10.46135445 -37.51272583 10.43388367 C-33.96685632 10.37957395 -30.42112297 10.34581831 -26.875 10.3125 C-24.47524138 10.27934523 -22.07550078 10.24485732 -19.67578125 10.20898438 C-13.78395212 10.12383543 -7.89216483 10.05712275 -2 10 C-1.34 6.7 -0.68 3.4 0 0 Z " fill="#018FD8" transform="translate(221,2)"/>
<path d="M0 0 C48.18 0 96.36 0 146 0 C146 9.08943089 146 9.08943089 145.1875 13.8125 C144.96126953 15.18341797 144.96126953 15.18341797 144.73046875 16.58203125 C144.11186645 19.47656072 143.36989171 22.26182324 142.55859375 25.10546875 C140.87402678 31.17578083 139.83956667 37.28047409 138.875 43.5 C138.54119911 45.61492166 138.20535739 47.72952253 137.8671875 49.84375 C137.72394043 50.76349609 137.58069336 51.68324219 137.43310547 52.63085938 C137 55 137 55 136 58 C135.82468564 59.79750022 135.65352414 61.59552523 135.50585938 63.39550781 C134.6425462 73.62882108 132.90356859 83.66921627 131 93.75 C130.86848541 94.45208588 130.73697083 95.15417175 130.60147095 95.87753296 C129.32028983 102.68713241 127.90767902 109.32312342 126 116 C125.01 123.59 124.02 131.18 123 139 C82.41 139 41.82 139 0 139 C0 93.13 0 47.26 0 0 Z " fill="#018FD7" transform="translate(2,2)"/>
<path d="M0 0 C2.97 0 5.94 0 9 0 C13.37128344 9.98884768 17.54902618 20.34359209 20 31 C20.48919922 29.515 20.48919922 29.515 20.98828125 28 C23.20845404 21.28418998 25.45253444 14.60025168 28 8 C28.56392371 6.50053466 29.12643019 5.00053554 29.6875 3.5 C30.120625 2.345 30.55375 1.19 31 0 C33.97 0 36.94 0 40 0 C42.38776806 33.29539348 42.38776806 33.29539348 42 49 C39.69 49 37.38 49 35 49 C34.01 32.665 34.01 32.665 33 16 C32.01 19.63 31.02 23.26 30 27 C29.67 27.99 29.34 28.98 29 30 C28.34 30 27.68 30 27 30 C26.87625 30.86625 26.7525 31.7325 26.625 32.625 C26.01941879 35.89513853 25.11693965 38.87256899 24 42 C20.6875 41.8125 20.6875 41.8125 17 41 C13.74210399 36.81127656 12.40816755 31.67772659 10.8125 26.6875 C9.884375 23.820625 8.95625 20.95375 8 18 C7.01 28.23 6.02 38.46 5 49 C2.69 49 0.38 49 -2 49 C-1.97494385 48.40388916 -1.9498877 47.80777832 -1.92407227 47.19360352 C-1.26370748 31.46314541 -0.62406034 15.73193918 0 0 Z " fill="#0380BF" transform="translate(166,166)"/>
<path d="M0 0 C3.63 0 7.26 0 11 0 C11.26554687 1.24136719 11.53109375 2.48273438 11.8046875 3.76171875 C12.16123096 5.40369522 12.51801444 7.04561959 12.875 8.6875 C13.04902344 9.50412109 13.22304687 10.32074219 13.40234375 11.16210938 C14.3083808 15.30638994 15.40942937 19.06236782 17 23 C17.5430559 25.44918212 18.03979602 27.90890692 18.5 30.375 C19.22274467 34.23225687 19.98811752 37.95951469 21.09375 41.7265625 C22 45 22 45 22 49 C19.69 49 17.38 49 15 49 C14.01 45.04 13.02 41.08 12 37 C5.07 36.505 5.07 36.505 -2 36 C-2.66 40.29 -3.32 44.58 -4 49 C-6.31 49 -8.62 49 -11 49 C-11.19206213 44.47634184 -10.56917194 40.90203593 -9.234375 36.5859375 C-6.96869044 28.99169851 -5.07969341 21.3364117 -3.25 13.625 C-2.93127049 12.29159949 -2.61226113 10.95826584 -2.29296875 9.625 C-1.52591202 6.41730821 -0.76162804 3.20898425 0 0 Z " fill="#037CB9" transform="translate(225,166)"/>
<path d="M0 0 C2.31 0 4.62 0 7 0 C13 13.10679612 13 13.10679612 13 19 C13.99 19 14.98 19 16 19 C16.0928125 17.081875 16.0928125 17.081875 16.1875 15.125 C16.78561781 9.42475605 19.21016494 4.93111068 22 0 C23.98 0 25.96 0 28 0 C27.77063007 5.04613838 26.37057867 8.46289098 24 12.9375 C20.86575921 18.9210506 20 23.27088914 20 30 C20.66 30 21.32 30 22 30 C23.17578304 32.57952403 24.340791 35.16303938 25.5 37.75 C25.83386719 38.47960937 26.16773438 39.20921875 26.51171875 39.9609375 C26.82753906 40.66992188 27.14335937 41.37890625 27.46875 42.109375 C27.76201172 42.75874023 28.05527344 43.40810547 28.35742188 44.07714844 C29 46 29 46 29 50 C26.125 50.125 26.125 50.125 23 50 C20.4916402 47.4916402 20.08199053 45.37326459 19 42 C18.4925038 40.76526697 17.97148901 39.5360088 17.4375 38.3125 C16 35 16 35 15 32 C14.34 32 13.68 32 13 32 C11.68 36.29 10.36 40.58 9 45 C8.34 45 7.68 45 7 45 C6.505 47.475 6.505 47.475 6 50 C4.02 50 2.04 50 0 50 C0.11554032 44.22298401 1.79584479 40.1133257 4.5 35.0625 C7.41135021 29.61301222 8.89292912 25.21011102 9 19 C8.34 19 7.68 19 7 19 C0.29612756 6.51480638 0.29612756 6.51480638 0 0 Z " fill="#037FBD" transform="translate(130,165)"/>
<path d="M0 0 C7.92 0 15.84 0 24 0 C24 1.98 24 3.96 24 6 C18.39 6 12.78 6 7 6 C7 10.95 7 15.9 7 21 C11.95 21 16.9 21 22 21 C22 22.98 22 24.96 22 27 C17.05 27 12.1 27 7 27 C7 32.94 7 38.88 7 45 C12.61 45 18.22 45 24 45 C24 46.65 24 48.3 24 50 C16.08 50 8.16 50 0 50 C0 33.5 0 17 0 0 Z " fill="#028FD6" transform="translate(280,165)"/>
<path d="M0 0 C7.92 0 15.84 0 24 0 C25 1 25 1 25 6 C19.06 6 13.12 6 7 6 C7 11.28 7 16.56 7 22 C12.28 22 17.56 22 23 22 C22.67 23.65 22.34 25.3 22 27 C17.05 27 12.1 27 7 27 C7 32.94 7 38.88 7 45 C12.94 45 18.88 45 25 45 C25 46.65 25 48.3 25 50 C16.75 50 8.5 50 0 50 C0 33.5 0 17 0 0 Z " fill="#056B9E" transform="translate(101,165)"/>
<path d="M0 0 C7.92 0 15.84 0 24 0 C25 1 25 1 25 6 C19.06 6 13.12 6 7 6 C7 11.61 7 17.22 7 23 C11.95 23 16.9 23 22 23 C22 24.65 22 26.3 22 28 C17.05 28 12.1 28 7 28 C7 35.26 7 42.52 7 50 C4.69 50 2.38 50 0 50 C0 33.5 0 17 0 0 Z " fill="#037AB7" transform="translate(41,165)"/>
<path d="M0 0 C9.9 0 19.8 0 30 0 C30 1.65 30 3.3 30 5 C26.37 5 22.74 5 19 5 C19 19.52 19 34.04 19 49 C16.36 49 13.72 49 11 49 C11 34.48 11 19.96 11 5 C7.37 5 3.74 5 0 5 C0 3.35 0 1.7 0 0 Z " fill="#0373AD" transform="translate(245,166)"/>
<path d="M0 0 C1.98 0 3.96 0 6 0 C6 14.85 6 29.7 6 45 C11.94 45 17.88 45 24 45 C24 46.65 24 48.3 24 50 C16.08 50 8.16 50 0 50 C0 33.5 0 17 0 0 Z " fill="#0484C4" transform="translate(72,165)"/>
<path d="M0 0 C7.92 0 15.84 0 24 0 C24 1.98 24 3.96 24 6 C18.39 6 12.78 6 7 6 C7 10.95 7 15.9 7 21 C11.95 21 16.9 21 22 21 C22 22.98 22 24.96 22 27 C17.05 27 12.1 27 7 27 C7 32.94 7 38.88 7 45 C12.61 45 18.22 45 24 45 C24 46.65 24 48.3 24 50 C16.08 50 8.16 50 0 50 C0 33.5 0 17 0 0 Z M1 1 C1 16.84 1 32.68 1 49 C8.26 49 15.52 49 23 49 C23 48.01 23 47.02 23 46 C17.39 45.67 11.78 45.34 6 45 C5.67 31.8 5.34 18.6 5 5 C10.94 5 16.88 5 23 5 C23 3.68 23 2.36 23 1 C15.74 1 8.48 1 1 1 Z " fill="#075C86" transform="translate(280,165)"/>
<path d="M0 0 C0.99 0.33 1.98 0.66 3 1 C7.18291259 15.17542601 6.11147532 30.38434648 6 45 C11.28 45 16.56 45 22 45 C22 45.99 22 46.98 22 48 C14.74 48 7.48 48 0 48 C0 32.16 0 16.32 0 0 Z " fill="#0481C0" transform="translate(102,166)"/>
<path d="M0 0 C0.04254356 1.99954746 0.04080783 4.00041636 0 6 C-0.33 6.33 -0.66 6.66 -1 7 C-1.23192865 8.51469448 -1.41215238 10.03754562 -1.5625 11.5625 C-1.706875 13.026875 -1.85125 14.49125 -2 16 C2.62 16 7.24 16 12 16 C11.67 16.99 11.34 17.98 11 19 C4.565 19.495 4.565 19.495 -2 20 C-2.99 24.29 -3.98 28.58 -5 33 C-7.31 33 -9.62 33 -12 33 C-12.20822702 28.29694155 -11.49861104 24.45027546 -10.1875 19.9375 C-9.85105469 18.75027344 -9.51460937 17.56304687 -9.16796875 16.33984375 C-8.07855378 13.22462702 -6.70357092 10.80280243 -5 8 C-4.6503582 5.66905466 -4.31445513 3.33595238 -4 1 C-2 0 -2 0 0 0 Z " fill="#0481C2" transform="translate(226,182)"/>
<path d="M0 0 C0.66 0 1.32 0 2 0 C2 5.28 2 10.56 2 16 C6.95 16 11.9 16 17 16 C17 17.98 17 19.96 17 22 C11.72 22 6.44 22 1 22 C1 27.94 1 33.88 1 40 C0.67 40 0.34 40 0 40 C0 26.8 0 13.6 0 0 Z " fill="#046B9F" transform="translate(285,170)"/>
<path d="M0 0 C0.66 0 1.32 0 2 0 C5.14456517 7.14673903 6.07835578 14.27987432 7 22 C3.37 22 -0.26 22 -4 22 C-3.71507769 19.64484432 -3.42225086 17.29110566 -3.125 14.9375 C-3.04636719 14.28072266 -2.96773437 13.62394531 -2.88671875 12.94726562 C-2.31282513 8.4664808 -1.33592224 4.31648825 0 0 Z " fill="#000F17" transform="translate(229,175)"/>
<path d="M0 0 C0.33 0 0.66 0 1 0 C0.43189471 5.79859195 -0.73679735 10.97686594 -2.5625 16.5 C-2.79646484 17.22703125 -3.03042969 17.9540625 -3.27148438 18.703125 C-3.84132781 20.47080261 -4.41975404 22.23570969 -5 24 C-11.875 23.125 -11.875 23.125 -13 22 C-13.04092937 19.66702567 -13.04241723 17.33294775 -13 15 C-10.50907189 13.75453595 -9.58919267 14.2232422 -7 15 C-6.9175 13.96875 -6.835 12.9375 -6.75 11.875 C-5.76983464 6.8108123 -3.61593269 3.61593269 0 0 Z " fill="#038ACF" transform="translate(195,184)"/>
<path d="M0 0 C0.66 0 1.32 0 2 0 C3.56387127 5.83845274 4.30262636 11.48660046 4.6875 17.5 C4.73575928 18.21865234 4.78401855 18.93730469 4.83374023 19.67773438 C4.93400491 21.44985416 4.97253376 23.22525857 5 25 C4.67 25.33 4.34 25.66 4 26 C3.76321284 28.69235776 3.57801975 31.36498156 3.4375 34.0625 C3.39431641 34.82111328 3.35113281 35.57972656 3.30664062 36.36132812 C3.20026367 38.24065438 3.09960066 40.12030244 3 42 C2.01 41.67 1.02 41.34 0 41 C0 27.47 0 13.94 0 0 Z " fill="#028FD9" transform="translate(103,167)"/>
<path d="M0 0 C0.33 0 0.66 0 1 0 C1 2.64 1 5.28 1 8 C-1.41906791 9.20953395 -3.02166308 9.15679908 -5.72509766 9.20532227 C-6.70596344 9.22526749 -7.68682922 9.24521271 -8.69741821 9.26576233 C-10.28965714 9.29083107 -10.28965714 9.29083107 -11.9140625 9.31640625 C-12.99883881 9.33718735 -14.08361511 9.35796844 -15.20126343 9.37937927 C-18.67577621 9.44490634 -22.15036624 9.50377447 -25.625 9.5625 C-27.97657058 9.60568221 -30.32813326 9.6492964 -32.6796875 9.69335938 C-38.4530427 9.80059093 -44.2264752 9.90235144 -50 10 C-50.12117187 10.90363281 -50.24234375 11.80726562 -50.3671875 12.73828125 C-50.53476563 13.91777344 -50.70234375 15.09726562 -50.875 16.3125 C-51.03742188 17.48425781 -51.19984375 18.65601563 -51.3671875 19.86328125 C-52 23 -52 23 -54 26 C-53.88608368 23.39491364 -53.75934452 20.79154454 -53.625 18.1875 C-53.5940625 17.44951172 -53.563125 16.71152344 -53.53125 15.95117188 C-53.32653852 12.18106885 -53.13566173 10.20349259 -51 7 C-48.86129761 6.60127258 -48.86129761 6.60127258 -46.18310547 6.56762695 C-44.68177567 6.53793571 -44.68177567 6.53793571 -43.15011597 6.50764465 C-42.06674957 6.50125473 -40.98338318 6.49486481 -39.8671875 6.48828125 C-38.20672897 6.46135445 -38.20672897 6.46135445 -36.51272583 6.43388367 C-32.96685632 6.37957395 -29.42112297 6.34581831 -25.875 6.3125 C-23.47524138 6.27934523 -21.07550078 6.24485732 -18.67578125 6.20898438 C-12.78397627 6.12383578 -6.8921541 6.05557376 -1 6 C-0.67 4.02 -0.34 2.04 0 0 Z " fill="#03679B" transform="translate(220,6)"/>
<path d="M0 0 C0.928125 0.103125 1.85625 0.20625 2.8125 0.3125 C2.38914615 6.80392565 -0.09849799 11.64742989 -3.1875 17.3125 C-3.5175 16.3225 -3.8475 15.3325 -4.1875 14.3125 C-3.8575 13.6525 -3.5275 12.9925 -3.1875 12.3125 C-5.1675 13.3025 -7.1475 14.2925 -9.1875 15.3125 C-5.13292254 0.5032277 -5.13292254 0.5032277 0 0 Z " fill="#037DBC" transform="translate(155.1875,164.6875)"/>
<path d="M0 0 C0.33 0 0.66 0 1 0 C1 5.28 1 10.56 1 16 C6.28 16 11.56 16 17 16 C16.67 17.65 16.34 19.3 16 21 C11.05 21 6.1 21 1 21 C0.2291293 17.91651718 -0.12081536 15.94762714 -0.09765625 12.890625 C-0.09443359 12.13652344 -0.09121094 11.38242188 -0.08789062 10.60546875 C-0.07951172 9.82816406 -0.07113281 9.05085937 -0.0625 8.25 C-0.05798828 7.45722656 -0.05347656 6.66445312 -0.04882812 5.84765625 C-0.03708565 3.89840492 -0.01915146 1.94919262 0 0 Z " fill="#0478B0" transform="translate(107,171)"/>
<path d="M0 0 C2.31 0 4.62 0 7 0 C8.29925791 4.33085971 9.343621 8.51474352 10 13 C7 14 7 14 4 13 C2.83203125 10.8203125 2.83203125 10.8203125 1.8125 8.125 C1.29623047 6.79855469 1.29623047 6.79855469 0.76953125 5.4453125 C0 3 0 3 0 0 Z " fill="#038CD2" transform="translate(130,165)"/>
<path d="M0 0 C1.1445351 3.76976245 0.5716871 5.3943649 -1 9 C-1 9.99 -1 10.98 -1 12 C-0.34 12 0.32 12 1 12 C2.2631363 15.58595072 1.72375723 17.95278881 0.6875 21.5625 C0.42324219 22.51253906 0.15898437 23.46257812 -0.11328125 24.44140625 C-1 27 -1 27 -3 30 C-2.67 26.37 -2.34 22.74 -2 19 C-4.74277578 22.19990508 -6.6302836 25.00499382 -8 29 C-9.47807402 24.42887228 -7.88874294 21.07237243 -6.25 16.75 C-5.98445312 16.02425781 -5.71890625 15.29851562 -5.4453125 14.55078125 C-4.64182975 12.3626559 -3.82293546 10.18087625 -3 8 C-2.43213853 6.48443237 -1.86442235 4.96881029 -1.296875 3.453125 C-0.86890625 2.31359375 -0.4409375 1.1740625 0 0 Z " fill="#036697" transform="translate(197,166)"/>
<path d="M0 0 C9.24 0 18.48 0 28 0 C28 1.32 28 2.64 28 4 C24.37 4 20.74 4 17 4 C17.33 3.01 17.66 2.02 18 1 C14.04 1 10.08 1 6 1 C6 1.66 6 2.32 6 3 C7.32 3.33 8.64 3.66 10 4 C6.7 4 3.4 4 0 4 C0 2.68 0 1.36 0 0 Z " fill="#0389CD" transform="translate(246,166)"/>
<path d="M0 0 C2.22050767 3.33076151 3.34473398 6.66856836 4.5625 10.4375 C4.78357422 11.10587891 5.00464844 11.77425781 5.23242188 12.46289062 C6.2674851 15.61811356 7.26269033 18.76080807 8 22 C8.66 21.34 9.32 20.68 10 20 C10 21.32 10 22.64 10 24 C8.35 23.67 6.7 23.34 5 23 C4.87882813 22.24074219 4.75765625 21.48148438 4.6328125 20.69921875 C4.46523437 19.70535156 4.29765625 18.71148437 4.125 17.6875 C3.96257812 16.70136719 3.80015625 15.71523437 3.6328125 14.69921875 C3.11914546 11.79940173 3.11914546 11.79940173 1 9 C0.5859375 6.73828125 0.5859375 6.73828125 0.375 4.3125 C0.30023438 3.50425781 0.22546875 2.69601563 0.1484375 1.86328125 C0.09945312 1.24839844 0.05046875 0.63351563 0 0 Z M0 18 C0.66 18 1.32 18 2 18 C2.12375 18.61875 2.2475 19.2375 2.375 19.875 C2.87197356 22.19120832 2.87197356 22.19120832 5 24 C4.625 27.125 4.625 27.125 4 30 C1.21366885 25.82050327 0 23.06624674 0 18 Z " fill="#03699D" transform="translate(178,175)"/>
<path d="M0 0 C5.94 0 11.88 0 18 0 C18 1.32 18 2.64 18 4 C12.39 4 6.78 4 1 4 C1.33 3.34 1.66 2.68 2 2 C1.34 1.34 0.68 0.68 0 0 Z " fill="#048BCF" transform="translate(285,166)"/>
<path d="M0 0 C1.10844919 3.32534757 0.84454356 5.62182575 0 9 C2.99332739 8.0022242 3.94766315 7.2477975 6 5 C5.67 6.65 5.34 8.3 5 10 C4.34 10 3.68 10 3 10 C2.67 11.65 2.34 13.3 2 15 C0.02 15 -1.96 15 -4 15 C-3.50341703 9.33895411 -2.45489316 5.12325529 0 0 Z " fill="#0572A7" transform="translate(134,200)"/>
<path d="M0 0 C4.95 0 9.9 0 15 0 C15 0.99 15 1.98 15 3 C10.05 3 5.1 3 0 3 C0 2.01 0 1.02 0 0 Z " fill="#028FD6" transform="translate(47,189)"/>
<path d="M0 0 C2 1 2 1 3.125 3.3125 C4 6 4 6 4 10 C2.35 10 0.7 10 -1 10 C-2.4783226 7.04335481 -2.06032783 4.25770263 -2 1 C-1.34 0.67 -0.68 0.34 0 0 Z " fill="#038BD1" transform="translate(242,204)"/>
<path d="M0 0 C0.99 0 1.98 0 3 0 C3 1.65 3 3.3 3 5 C-2.94 5 -8.88 5 -15 5 C-15 4.34 -15 3.68 -15 3 C-10.05 3 -5.1 3 0 3 C0 2.01 0 1.02 0 0 Z " fill="#066C9F" transform="translate(63,166)"/>
<path d="M0 0 C4.95 0 9.9 0 15 0 C15 0.99 15 1.98 15 3 C10.38 3 5.76 3 1 3 C0.67 2.01 0.34 1.02 0 0 Z " fill="#028FD5" transform="translate(109,211)"/>
<path d="M0 0 C0.33 0 0.66 0 1 0 C1.103125 0.9075 1.20625 1.815 1.3125 2.75 C2.01661609 6.07854877 3.00246723 7.36688862 5 10 C4.67 10.99 4.34 11.98 4 13 C2.35 13 0.7 13 -1 13 C-0.67 8.71 -0.34 4.42 0 0 Z " fill="#037EBF" transform="translate(162,48)"/>
<path d="M0 0 C-0.33 0.66 -0.66 1.32 -1 2 C-5.95 2 -10.9 2 -16 2 C-16 1.34 -16 0.68 -16 0 C-14.08416353 -0.1958009 -12.16727461 -0.38132214 -10.25 -0.5625 C-8.64898437 -0.71912109 -8.64898437 -0.71912109 -7.015625 -0.87890625 C-4.35858796 -0.98560074 -2.50039428 -0.81930395 0 0 Z " fill="#038FD9" transform="translate(238,199)"/>
<path d="M0 0 C1.98 0 3.96 0 6 0 C5.53199289 4.05606165 5.12046792 7.46588679 3 11 C1.46554906 7.93109813 2.45015711 5.29905734 3 2 C2.01 2 1.02 2 0 2 C0 2.99 0 3.98 0 5 C-0.66 5 -1.32 5 -2 5 C-1.34 3.35 -0.68 1.7 0 0 Z " fill="#045D88" transform="translate(152,165)"/>
<path d="M0 0 C2.31 0 4.62 0 7 0 C7.33 1.65 7.66 3.3 8 5 C7.34 5 6.68 5 6 5 C5.67 4.34 5.34 3.68 5 3 C4.01 2.67 3.02 2.34 2 2 C2.33 4.31 2.66 6.62 3 9 C0.23776722 6.23776722 0.42143709 3.79293383 0 0 Z " fill="#04557A" transform="translate(130,165)"/>
<path d="M0 0 C1.60080151 4.00200378 0.29279692 7.04556236 -1 11 C2.63 11 6.26 11 10 11 C10 11.33 10 11.66 10 12 C6.04 12 2.08 12 -2 12 C-2.25 3.375 -2.25 3.375 0 0 Z " fill="#056696" transform="translate(226,186)"/>
<path d="M0 0 C4.29 0 8.58 0 13 0 C13 0.66 13 1.32 13 2 C6.565 2.495 6.565 2.495 0 3 C0 2.01 0 1.02 0 0 Z " fill="#048FDA" transform="translate(287,188)"/>
<path d="M0 0 C0.33 0 0.66 0 1 0 C1.19392201 5.52677733 0.7479503 9.75614911 -1 15 C-1.66 15 -2.32 15 -3 15 C-2.44854729 9.76119922 -1.57077907 5.02649303 0 0 Z " fill="#04618E" transform="translate(225,166)"/>
<path d="M0 0 C1.88153009 2.82229513 3.00034705 5.27890171 4.1875 8.4375 C4.55230469 9.38496094 4.91710937 10.33242187 5.29296875 11.30859375 C6.01860758 14.07083217 5.97849698 15.36366738 5 18 C1.90787824 11.91643021 0.43300764 6.81987029 0 0 Z " fill="#034F75" transform="translate(178,175)"/>
<path d="M0 0 C1.60080151 4.00200378 0.29279692 7.04556236 -1 11 C-1.66 11 -2.32 11 -3 11 C-2.32829194 7.1936543 -1.27253436 3.64793184 0 0 Z " fill="#045F8A" transform="translate(134,200)"/>
<path d="M0 0 C0.66 0 1.32 0 2 0 C2.33 1.65 2.66 3.3 3 5 C1.68 5.33 0.36 5.66 -1 6 C-1.042721 4.33388095 -1.04063832 2.66617115 -1 1 C-0.67 0.67 -0.34 0.34 0 0 Z " fill="#018FD8" transform="translate(135,203)"/>
<path d="M0 0 C1.32 0 2.64 0 4 0 C4 1.65 4 3.3 4 5 C2.68 4.67 1.36 4.34 0 4 C0 2.68 0 1.36 0 0 Z " fill="#018FDC" transform="translate(152,208)"/>
<path d="M0 0 C0.99 0 1.98 0 3 0 C3 3.63 3 7.26 3 11 C0.60236815 8.60236815 0.65719414 7.66726502 0.375 4.375 C0.30023438 3.55773437 0.22546875 2.74046875 0.1484375 1.8984375 C0.09945312 1.27195313 0.05046875 0.64546875 0 0 Z " fill="#027AB2" transform="translate(132,167)"/>
</svg>
